<svg version="1.1" xmlns="http://www.w3.org/2000/svg" viewBox="0 0 2141.393123519202 824.4444444444443" width="2141.393123519202" height="824.4444444444443" filter="invert(93%) hue-rotate(180deg)">
  <!-- svg-source:excalidraw -->
  
  <defs>
    <style class="style-fonts">
      @font-face {
        font-family: "Virgil";
        src: url("https://excalidraw.com/Virgil.woff2");
      }
      @font-face {
        font-family: "Cascadia";
        src: url("https://excalidraw.com/Cascadia.woff2");
      }
      @font-face {
        font-family: "Assistant";
        src: url("https://excalidraw.com/Assistant-Regular.woff2");
      }
    </style>
    
  </defs>
  <rect x="0" y="0" width="2141.393123519202" height="824.4444444444443" fill="#ffffff"></rect><g stroke-linecap="round" transform="translate(1212.7406614155805 10) rotate(0 221.1111111111111 402.2222222222222)"><path d="M32 0 C175.4 0.55, 316.74 1.19, 410.22 0 M32 0 C122.82 1.49, 214.37 1.27, 410.22 0 M410.22 0 C432.36 0.98, 442.08 11.01, 442.22 32 M410.22 0 C433.37 0.55, 441.22 11.47, 442.22 32 M442.22 32 C441.86 317.91, 442.45 604.23, 442.22 772.44 M442.22 32 C440.96 210.21, 441.44 387.96, 442.22 772.44 M442.22 772.44 C440.94 792.77, 430.74 805.79, 410.22 804.44 M442.22 772.44 C440.88 793.58, 433.19 806.43, 410.22 804.44 M410.22 804.44 C312.61 802.71, 216.84 802.81, 32 804.44 M410.22 804.44 C269.46 802.94, 129.32 803.2, 32 804.44 M32 804.44 C9.44 805.9, 1.64 793.68, 0 772.44 M32 804.44 C10.85 806.05, -2.14 792.36, 0 772.44 M0 772.44 C0.87 620.24, -0.39 469.25, 0 32 M0 772.44 C-0.11 553.95, -0.2 335.56, 0 32 M0 32 C-1.41 9.52, 12.08 1.74, 32 0 M0 32 C-2.15 12.25, 10.69 -0.38, 32 0" stroke="#f08c00" stroke-width="1" fill="none"></path></g><g transform="translate(1362.4601022996408 367.22222222222223) rotate(0 71.39167022705078 45)"><text x="71.39167022705078" y="0" font-family="Virgil, Segoe UI Emoji" font-size="36px" fill="#f08c00" text-anchor="middle" style="white-space: pre;" direction="ltr" dominant-baseline="text-before-edge">Backend</text><text x="71.39167022705078" y="45" font-family="Virgil, Segoe UI Emoji" font-size="36px" fill="#f08c00" text-anchor="middle" style="white-space: pre;" direction="ltr" dominant-baseline="text-before-edge">(wk7)</text></g><g stroke-linecap="round" transform="translate(14.5 50.49610024616874) rotate(0 299.5 128.5)"><path d="M32 0 C228.04 -2.18, 423.52 -0.95, 567 0 M32 0 C141.51 0.29, 250.98 -0.22, 567 0 M567 0 C587.03 1.93, 598.56 8.97, 599 32 M567 0 C588.91 -0.45, 600.9 9.77, 599 32 M599 32 C596.21 94.39, 598.42 157.2, 599 225 M599 32 C601.51 75.66, 600.98 119.32, 599 225 M599 225 C597.6 247.61, 590.33 255.8, 567 257 M599 225 C601.12 247.5, 589.99 257.03, 567 257 M567 257 C406.02 256.15, 244.59 255.02, 32 257 M567 257 C363.21 255.26, 159.92 255.24, 32 257 M32 257 C10.85 256.02, -0.21 247.6, 0 225 M32 257 C11.65 258.47, 1.63 245.6, 0 225 M0 225 C0.38 165.97, 0.09 107.1, 0 32 M0 225 C2.32 164.03, 1.25 102.54, 0 32 M0 32 C0.85 11.45, 9.98 -0.98, 32 0 M0 32 C-2.22 9.8, 10.04 1.58, 32 0" stroke="#1971c2" stroke-width="1" fill="none"></path></g><g transform="translate(223.8000030517578 133.99610024616874) rotate(0 90.19999694824219 45)"><text x="90.19999694824219" y="0" font-family="Virgil, Segoe UI Emoji" font-size="36px" fill="#e03131" text-anchor="middle" style="white-space: pre;" direction="ltr" dominant-baseline="text-before-edge">Frontend</text><text x="90.19999694824219" y="45" font-family="Virgil, Segoe UI Emoji" font-size="36px" fill="#e03131" text-anchor="middle" style="white-space: pre;" direction="ltr" dominant-baseline="text-before-edge">(wk1, 8-10)</text></g><g stroke-linecap="round" transform="translate(35 223.99610024616874) rotate(0 115.84808142511164 40)"><path d="M20 0 C89.31 -0.09, 155.82 -0.53, 211.7 0 M20 0 C78.94 0.16, 138.38 0.9, 211.7 0 M211.7 0 C224.88 -1.62, 229.78 5.91, 231.7 20 M211.7 0 C225.84 1, 232.17 6.51, 231.7 20 M231.7 20 C230.9 32.05, 231.3 45.75, 231.7 60 M231.7 20 C231.49 35.98, 231.24 51.41, 231.7 60 M231.7 60 C232.98 74.33, 225.29 81.93, 211.7 80 M231.7 60 C229.42 74.82, 226.83 81.49, 211.7 80 M211.7 80 C159.86 77.68, 111.96 79.53, 20 80 M211.7 80 C142.75 79.55, 72.11 79.18, 20 80 M20 80 C6.5 81.53, -0.6 74.57, 0 60 M20 80 C5.72 82.29, 0.01 74.55, 0 60 M0 60 C-1.08 48.23, 0.52 33.25, 0 20 M0 60 C-0.93 51.33, -1 44.18, 0 20 M0 20 C-0.54 6.15, 5.24 0.24, 20 0 M0 20 C-0.57 6.01, 4.97 0.94, 20 0" stroke="#1971c2" stroke-width="1" fill="none"></path></g><g transform="translate(76.53974707452574 228.99610024616874) rotate(0 74.30833435058594 35)"><text x="74.30833435058594" y="0" font-family="Virgil, Segoe UI Emoji" font-size="28px" fill="#1971c2" text-anchor="middle" style="white-space: pre;" direction="ltr" dominant-baseline="text-before-edge">JavaScript</text><text x="74.30833435058594" y="35" font-family="Virgil, Segoe UI Emoji" font-size="28px" fill="#1971c2" text-anchor="middle" style="white-space: pre;" direction="ltr" dominant-baseline="text-before-edge">(wk2-4)</text></g><g stroke-linecap="round" transform="translate(168.25 367.24610024616874) rotate(0 150.125 42.5)"><path d="M21.25 0 C75.19 -2.25, 129.68 -1.46, 279 0 M21.25 0 C91.71 -0.22, 161.98 -0.71, 279 0 M279 0 C293.8 -0.07, 299.58 7.18, 300.25 21.25 M279 0 C291.18 1.42, 300.8 5.08, 300.25 21.25 M300.25 21.25 C300.16 35.49, 301.87 54.07, 300.25 63.75 M300.25 21.25 C299.76 32.35, 300.95 43.2, 300.25 63.75 M300.25 63.75 C301.78 79.37, 295.14 86.5, 279 85 M300.25 63.75 C300.88 77.51, 292.08 86.85, 279 85 M279 85 C223.77 84.18, 168.66 82.37, 21.25 85 M279 85 C183.57 85.07, 88.97 85.2, 21.25 85 M21.25 85 C5.6 84.45, 1.07 78.72, 0 63.75 M21.25 85 C6.68 87.2, -1.95 76.58, 0 63.75 M0 63.75 C2.09 50.23, 0.1 37.8, 0 21.25 M0 63.75 C0.85 52.09, -0.03 39.73, 0 21.25 M0 21.25 C-0.27 8.84, 7.1 1.44, 21.25 0 M0 21.25 C-2.24 7.34, 8.89 -2.19, 21.25 0" stroke="#1971c2" stroke-width="1" fill="none"></path></g><g transform="translate(195.05833435058594 374.74610024616874) rotate(0 123.31666564941406 35)"><text x="123.31666564941406" y="0" font-family="Virgil, Segoe UI Emoji" font-size="28px" fill="#1971c2" text-anchor="middle" style="white-space: pre;" direction="ltr" dominant-baseline="text-before-edge">HTTP, JSON, API</text><text x="123.31666564941406" y="35" font-family="Virgil, Segoe UI Emoji" font-size="28px" fill="#1971c2" text-anchor="middle" style="white-space: pre;" direction="ltr" dominant-baseline="text-before-edge">(wk5)</text></g><g stroke-linecap="round" transform="translate(10 515.7461002461687) rotate(0 299.5 128.5)"><path d="M32 0 C172.23 -0.94, 312.98 -0.96, 567 0 M32 0 C188.22 -0.56, 343.91 -0.81, 567 0 M567 0 C586.41 0.69, 599.26 11.12, 599 32 M567 0 C588.41 1.84, 598.6 12.62, 599 32 M599 32 C599.68 105.98, 598.81 175.69, 599 225 M599 32 C598.33 80.39, 598.55 126.52, 599 225 M599 225 C597.81 247.11, 589.75 257.76, 567 257 M599 225 C597.59 246.94, 588.21 256.65, 567 257 M567 257 C438.29 255.99, 310.27 255.68, 32 257 M567 257 C359.81 257.7, 152.51 257.51, 32 257 M32 257 C10.86 258.14, -1.93 244.54, 0 225 M32 257 C9.55 258.42, 0.58 245.55, 0 225 M0 225 C2.57 170.79, -0.47 115.06, 0 32 M0 225 C1.07 162.97, 0.34 101.36, 0 32 M0 32 C-0.55 12.41, 9.25 1.29, 32 0 M0 32 C-0.53 11.27, 10.33 -0.57, 32 0" stroke="#1971c2" stroke-width="1" fill="none"></path></g><g transform="translate(219.3000030517578 599.2461002461687) rotate(0 90.19999694824219 45)"><text x="90.19999694824219" y="0" font-family="Virgil, Segoe UI Emoji" font-size="36px" fill="#e03131" text-anchor="middle" style="white-space: pre;" direction="ltr" dominant-baseline="text-before-edge">Frontend</text><text x="90.19999694824219" y="45" font-family="Virgil, Segoe UI Emoji" font-size="36px" fill="#e03131" text-anchor="middle" style="white-space: pre;" direction="ltr" dominant-baseline="text-before-edge">(wk1, 8-10)</text></g><g stroke-linecap="round" transform="translate(28.686262449968126 685.0270400607917) rotate(0 112.92790818938367 40)"><path d="M20 0 C92.49 -0.62, 165.73 -0.52, 205.86 0 M20 0 C69.59 2.01, 121.23 1.89, 205.86 0 M205.86 0 C219.25 1.6, 225.51 8.36, 225.86 20 M205.86 0 C220.9 0.83, 224.04 6.66, 225.86 20 M225.86 20 C224.61 34.51, 224.09 51.3, 225.86 60 M225.86 20 C225.44 35.67, 226.74 50.94, 225.86 60 M225.86 60 C224.63 73.86, 219.09 79.69, 205.86 80 M225.86 60 C224.48 71.73, 217.52 79.16, 205.86 80 M205.86 80 C139.33 79.34, 69.61 80.59, 20 80 M205.86 80 C132.3 81.49, 57.58 80.03, 20 80 M20 80 C5.69 81.23, 0.51 72.65, 0 60 M20 80 C6.23 78.4, -0.89 74.74, 0 60 M0 60 C0.72 47.16, -0.23 36.52, 0 20 M0 60 C-0.08 51.47, -0.51 41.83, 0 20 M0 20 C-0.46 7.19, 6.38 -0.5, 20 0 M0 20 C1.02 8.5, 8.13 -1.74, 20 0" stroke="#1971c2" stroke-width="1" fill="none"></path></g><g transform="translate(67.30583628876587 690.0270400607917) rotate(0 74.30833435058594 35)"><text x="74.30833435058594" y="0" font-family="Virgil, Segoe UI Emoji" font-size="28px" fill="#1971c2" text-anchor="middle" style="white-space: pre;" direction="ltr" dominant-baseline="text-before-edge">JavaScript</text><text x="74.30833435058594" y="35" font-family="Virgil, Segoe UI Emoji" font-size="28px" fill="#1971c2" text-anchor="middle" style="white-space: pre;" direction="ltr" dominant-baseline="text-before-edge">(wk2-4)</text></g><g stroke-linecap="round"><g transform="translate(308.25 306.74610024616874) rotate(0 0.7876221909022547 29.75)"><path d="M-0.38 -0.28 C-0.01 9.54, 1.97 50.17, 2.38 60.07 M1.61 -1.47 C1.89 8.51, 1.86 47.97, 1.85 58.24" stroke="#1971c2" stroke-width="1" fill="none"></path></g><g transform="translate(308.25 306.74610024616874) rotate(0 0.7876221909022547 29.75)"><path d="M-8.32 30.27 C-5.35 40.33, -0.78 48.47, 1.85 58.24 M-8.32 30.27 C-6.13 37.76, -3.54 45.26, 1.85 58.24" stroke="#1971c2" stroke-width="1" fill="none"></path></g><g transform="translate(308.25 306.74610024616874) rotate(0 0.7876221909022547 29.75)"><path d="M12.04 30.28 C8.69 40.27, 6.92 48.41, 1.85 58.24 M12.04 30.28 C8.84 37.7, 6.04 45.19, 1.85 58.24" stroke="#1971c2" stroke-width="1" fill="none"></path></g></g><mask></mask><g stroke-linecap="round"><g transform="translate(295.51891030206093 455.6996798418094) rotate(0 1.3163470840639206 29.375)"><path d="M0.89 0.44 C1.43 9.86, 2.81 47.91, 2.96 57.71 M-0.1 -0.37 C0.33 9.66, 1.47 49.11, 2.19 58.7" stroke="#1971c2" stroke-width="1" fill="none"></path></g><g transform="translate(295.51891030206093 455.6996798418094) rotate(0 1.3163470840639206 29.375)"><path d="M-9.2 31.59 C-5.01 39.64, -4.29 45.26, 2.19 58.7 M-9.2 31.59 C-6.24 41.43, -1.85 49.26, 2.19 58.7" stroke="#1971c2" stroke-width="1" fill="none"></path></g><g transform="translate(295.51891030206093 455.6996798418094) rotate(0 1.3163470840639206 29.375)"><path d="M10.9 30.62 C9.48 39.08, 4.58 44.98, 2.19 58.7 M10.9 30.62 C6.96 40.76, 4.45 48.92, 2.19 58.7" stroke="#1971c2" stroke-width="1" fill="none"></path></g></g><mask></mask><g stroke-linecap="round"><g transform="translate(356.51830502355574 509.4496798418094) rotate(0 1.3539454832750266 -28.101789797820345)"><path d="M0.75 0.33 C1.52 -8.99, 3.12 -46, 3.59 -55.39 M-0.31 -0.55 C0.47 -10.24, 2.51 -48.07, 3.11 -57.09" stroke="#1971c2" stroke-width="1" fill="none"></path></g><g transform="translate(356.51830502355574 509.4496798418094) rotate(0 1.3539454832750266 -28.101789797820345)"><path d="M11.14 -30.13 C9.85 -34.41, 8.93 -40.23, 3.11 -57.09 M11.14 -30.13 C9.01 -38.83, 5.05 -47.96, 3.11 -57.09" stroke="#1971c2" stroke-width="1" fill="none"></path></g><g transform="translate(356.51830502355574 509.4496798418094) rotate(0 1.3539454832750266 -28.101789797820345)"><path d="M-8.07 -31.27 C-5.22 -35.42, -2.02 -41, 3.11 -57.09 M-8.07 -31.27 C-4.22 -39.48, -2.2 -48.26, 3.11 -57.09" stroke="#1971c2" stroke-width="1" fill="none"></path></g></g><mask></mask><g stroke-linecap="round"><g transform="translate(352.2620564139596 363.90229892229496) rotate(0 -9.08501733531017 -31.25)"><path d="M-1.09 -0.7 C-3.91 -11.24, -14.54 -51.95, -17.46 -62.34 M0.54 1.55 C-2.33 -8.85, -14.67 -50.12, -18.04 -60.72" stroke="#1971c2" stroke-width="1" fill="none"></path></g><g transform="translate(352.2620564139596 363.90229892229496) rotate(0 -9.08501733531017 -31.25)"><path d="M0.04 -36.78 C-5.93 -41.88, -9.12 -49.98, -18.04 -60.72 M0.04 -36.78 C-4.49 -42.79, -9.52 -49.13, -18.04 -60.72" stroke="#1971c2" stroke-width="1" fill="none"></path></g><g transform="translate(352.2620564139596 363.90229892229496) rotate(0 -9.08501733531017 -31.25)"><path d="M-19.58 -30.76 C-20.58 -37.22, -18.76 -46.86, -18.04 -60.72 M-19.58 -30.76 C-19.14 -38.38, -19.18 -46.26, -18.04 -60.72" stroke="#1971c2" stroke-width="1" fill="none"></path></g></g><mask></mask><g stroke-linecap="round" transform="translate(1821.8256743829 356.7344893108786) rotate(0 154.78372456815123 72.5)"><path d="M32 0 C110.92 1.43, 188.05 2.28, 277.57 0 M32 0 C113.68 1, 196.05 0.69, 277.57 0 M277.57 0 C299.59 -0.16, 307.8 12.6, 309.57 32 M277.57 0 C296.91 0.07, 310.46 10.98, 309.57 32 M309.57 32 C309.98 54.79, 311.14 79.16, 309.57 113 M309.57 32 C309.04 62.68, 310.16 93.43, 309.57 113 M309.57 113 C309.44 135.42, 300.08 146.59, 277.57 145 M309.57 113 C309.13 132.68, 297.02 144.3, 277.57 145 M277.57 145 C217.9 143.62, 157.66 145.04, 32 145 M277.57 145 C225.73 143.44, 174.72 143.8, 32 145 M32 145 C8.79 143.72, 1.74 132.58, 0 113 M32 145 C10.57 146.58, 0.62 132.5, 0 113 M0 113 C1.94 88.77, -1.21 63.3, 0 32 M0 113 C1.63 85.19, 0.81 56.84, 0 32 M0 32 C0.07 12.53, 11.37 -1.32, 32 0 M0 32 C2.29 10.8, 10.58 -1.2, 32 0" stroke="#f08c00" stroke-width="1" fill="none"></path></g><g transform="translate(1887.6093989510512 384.2344893108786) rotate(0 89 45)"><text x="89" y="0" font-family="Virgil, Segoe UI Emoji" font-size="36px" fill="#f08c00" text-anchor="middle" style="white-space: pre;" direction="ltr" dominant-baseline="text-before-edge">Database</text><text x="89" y="45" font-family="Virgil, Segoe UI Emoji" font-size="36px" fill="#f08c00" text-anchor="middle" style="white-space: pre;" direction="ltr" dominant-baseline="text-before-edge">(wk6)</text></g><g stroke-linecap="round"><g transform="translate(756.4030996882881 63.13420397376444) rotate(0 -69.95154984414398 0.1920690453972469)"><path d="M0.91 -0.58 C-22.55 -0.66, -116.46 -0.45, -139.87 -0.22 M-0.07 1.72 C-23.76 1.77, -117.46 1.51, -140.81 1.01" stroke="#f08c00" stroke-width="1" fill="none"></path></g><g transform="translate(756.4030996882881 63.13420397376444) rotate(0 -69.95154984414398 0.1920690453972469)"><path d="M-112.51 -8.95 C-123.95 -5, -134.47 -0.78, -140.81 1.01 M-112.51 -8.95 C-122.72 -4.64, -132.27 -1.56, -140.81 1.01" stroke="#f08c00" stroke-width="1" fill="none"></path></g><g transform="translate(756.4030996882881 63.13420397376444) rotate(0 -69.95154984414398 0.1920690453972469)"><path d="M-112.73 11.57 C-124.13 7.91, -134.57 4.53, -140.81 1.01 M-112.73 11.57 C-122.67 8.98, -132.15 5.15, -140.81 1.01" stroke="#f08c00" stroke-width="1" fill="none"></path></g></g><mask></mask><g stroke-linecap="round"><g transform="translate(620.1535791892447 97.92853497891889) rotate(0 69.12476024952122 -0.7826929992211547)"><path d="M-0.16 0.55 C22.98 0.43, 115.54 -0.21, 138.47 -0.48 M-1.71 -0.2 C21.34 -0.66, 114.04 -1.55, 137.64 -2.03" stroke="#f08c00" stroke-width="1" fill="none"></path></g><g transform="translate(620.1535791892447 97.92853497891889) rotate(0 69.12476024952122 -0.7826929992211547)"><path d="M109.6 8.64 C117.95 6.21, 126.29 1.66, 137.64 -2.03 M109.6 8.64 C120.2 5.4, 127.98 1.57, 137.64 -2.03" stroke="#f08c00" stroke-width="1" fill="none"></path></g><g transform="translate(620.1535791892447 97.92853497891889) rotate(0 69.12476024952122 -0.7826929992211547)"><path d="M109.31 -11.88 C117.78 -8.85, 126.2 -7.96, 137.64 -2.03 M109.31 -11.88 C120.05 -8.06, 127.93 -4.85, 137.64 -2.03" stroke="#f08c00" stroke-width="1" fill="none"></path></g></g><mask></mask><g stroke-linecap="round"><g transform="translate(1657.185105860026 404.2372920873468) rotate(0 80.8202842614379 0.31536185520087656)"><path d="M-0.78 -0.98 C26.25 -0.88, 135.16 0.29, 162.09 0.48 M1.01 1.13 C27.94 1.42, 134.34 1.92, 161.38 1.94" stroke="#f08c00" stroke-width="1" fill="none"></path></g><g transform="translate(1657.185105860026 404.2372920873468) rotate(0 80.8202842614379 0.31536185520087656)"><path d="M133.15 12.11 C139.74 10.08, 149.31 4.97, 161.38 1.94 M133.15 12.11 C139.53 8.82, 147.82 6.69, 161.38 1.94" stroke="#f08c00" stroke-width="1" fill="none"></path></g><g transform="translate(1657.185105860026 404.2372920873468) rotate(0 80.8202842614379 0.31536185520087656)"><path d="M133.22 -8.41 C139.76 -4.47, 149.32 -3.63, 161.38 1.94 M133.22 -8.41 C139.69 -6.38, 147.96 -3.19, 161.38 1.94" stroke="#f08c00" stroke-width="1" fill="none"></path></g></g><mask></mask><g stroke-linecap="round"><g transform="translate(1819.9367854940128 461.2512184806199) rotate(0 -81.93139537254899 -3.641078216860137)"><path d="M1.09 -1.14 C-26.08 -2.41, -136.29 -6.33, -163.68 -7.16 M0.21 0.88 C-27.05 -0.22, -137.22 -4.1, -164.53 -5.56" stroke="#f08c00" stroke-width="1" fill="none"></path></g><g transform="translate(1819.9367854940128 461.2512184806199) rotate(0 -81.93139537254899 -3.641078216860137)"><path d="M-135.93 -14.6 C-144.8 -11.82, -149.71 -8.88, -164.53 -5.56 M-135.93 -14.6 C-147.38 -11.03, -157.87 -8.46, -164.53 -5.56" stroke="#f08c00" stroke-width="1" fill="none"></path></g><g transform="translate(1819.9367854940128 461.2512184806199) rotate(0 -81.93139537254899 -3.641078216860137)"><path d="M-136.81 5.9 C-145.55 3.65, -150.25 1.56, -164.53 -5.56 M-136.81 5.9 C-148.04 1.39, -158.18 -4.15, -164.53 -5.56" stroke="#f08c00" stroke-width="1" fill="none"></path></g></g><mask></mask><g stroke-linecap="round" transform="translate(761.5472908671773 39.789637930527704) rotate(0 150.125 42.5)"><path d="M21.25 0 C89.41 -1.43, 160.2 -2.39, 279 0 M21.25 0 C121.36 -0.43, 220.69 -0.18, 279 0 M279 0 C293.47 0.06, 300.61 6.86, 300.25 21.25 M279 0 C292.59 -2.13, 300.2 7.74, 300.25 21.25 M300.25 21.25 C299.03 33.64, 300.83 48.56, 300.25 63.75 M300.25 21.25 C300.77 35.42, 300.41 51.26, 300.25 63.75 M300.25 63.75 C300 76.61, 294.66 84.47, 279 85 M300.25 63.75 C301.81 78.83, 292.11 84.01, 279 85 M279 85 C210.44 83.99, 140.67 83.38, 21.25 85 M279 85 C189 85.55, 96.71 86.32, 21.25 85 M21.25 85 C5.22 84.18, 0.58 79.71, 0 63.75 M21.25 85 C6.8 85.88, -1.91 79.37, 0 63.75 M0 63.75 C-0.51 53.51, 0.13 44.13, 0 21.25 M0 63.75 C-0.51 54.84, -0.4 46.13, 0 21.25 M0 21.25 C-1.4 6.13, 8.25 1.65, 21.25 0 M0 21.25 C0.57 8.91, 8.93 0.27, 21.25 0" stroke="#1971c2" stroke-width="1" fill="none"></path></g><g transform="translate(788.3556252177632 47.289637930527704) rotate(0 123.31666564941406 35)"><text x="123.31666564941406" y="0" font-family="Virgil, Segoe UI Emoji" font-size="28px" fill="#1971c2" text-anchor="middle" style="white-space: pre;" direction="ltr" dominant-baseline="text-before-edge">HTTP, JSON, API</text><text x="123.31666564941406" y="35" font-family="Virgil, Segoe UI Emoji" font-size="28px" fill="#1971c2" text-anchor="middle" style="white-space: pre;" direction="ltr" dominant-baseline="text-before-edge">(wk5)</text></g><g stroke-linecap="round" transform="translate(747.573465822021 693.7646500438384) rotate(0 150.125 42.5)"><path d="M21.25 0 C98.23 -0.02, 172.17 -1.72, 279 0 M21.25 0 C116.99 -1.97, 212.42 -1.59, 279 0 M279 0 C293.68 1.37, 301.33 5.35, 300.25 21.25 M279 0 C295.28 0.81, 302.48 6.64, 300.25 21.25 M300.25 21.25 C300.71 32.55, 299.93 47.86, 300.25 63.75 M300.25 21.25 C299.66 34.87, 300.73 47.55, 300.25 63.75 M300.25 63.75 C300.18 77.15, 292.95 85.22, 279 85 M300.25 63.75 C300.17 79.9, 292.24 83.39, 279 85 M279 85 C226.23 84.17, 176.2 85.93, 21.25 85 M279 85 C220.21 87.24, 162.25 87.11, 21.25 85 M21.25 85 C6 83.76, -1.01 77.3, 0 63.75 M21.25 85 C8.34 85.45, -0.95 78.04, 0 63.75 M0 63.75 C-0.54 49.81, 0.31 34.54, 0 21.25 M0 63.75 C-0.18 49.75, -0.54 36.52, 0 21.25 M0 21.25 C1.3 6.73, 6.74 -0.82, 21.25 0 M0 21.25 C-0.87 8.26, 5.44 0.64, 21.25 0" stroke="#1971c2" stroke-width="1" fill="none"></path></g><g transform="translate(774.381800172607 701.2646500438384) rotate(0 123.31666564941406 35)"><text x="123.31666564941406" y="0" font-family="Virgil, Segoe UI Emoji" font-size="28px" fill="#1971c2" text-anchor="middle" style="white-space: pre;" direction="ltr" dominant-baseline="text-before-edge">HTTP, JSON, API</text><text x="123.31666564941406" y="35" font-family="Virgil, Segoe UI Emoji" font-size="28px" fill="#1971c2" text-anchor="middle" style="white-space: pre;" direction="ltr" dominant-baseline="text-before-edge">(wk5)</text></g><g stroke-linecap="round"><g transform="translate(1207.340306876549 60.72424316131372) rotate(0 -69.95154984414398 0.1920690453972469)"><path d="M-0.38 -0.5 C-23.79 -0.45, -116.99 -0.81, -140.23 -0.61 M1.62 -1.81 C-21.99 -1.56, -117.66 0.35, -141.35 0.41" stroke="#f08c00" stroke-width="1" fill="none"></path></g><g transform="translate(1207.340306876549 60.72424316131372) rotate(0 -69.95154984414398 0.1920690453972469)"><path d="M-113.29 -10.2 C-123.14 -7.46, -132.9 -3.38, -141.35 0.41 M-113.29 -10.2 C-122.95 -7.27, -130.76 -4.03, -141.35 0.41" stroke="#f08c00" stroke-width="1" fill="none"></path></g><g transform="translate(1207.340306876549 60.72424316131372) rotate(0 -69.95154984414398 0.1920690453972469)"><path d="M-113.03 10.32 C-122.81 6.53, -132.66 4.06, -141.35 0.41 M-113.03 10.32 C-122.95 6.51, -130.85 3, -141.35 0.41" stroke="#f08c00" stroke-width="1" fill="none"></path></g></g><mask></mask><g stroke-linecap="round"><g transform="translate(1071.0907863775055 95.51857416646823) rotate(0 69.12476024952122 -0.7826929992211547)"><path d="M-0.33 -0.99 C22.79 -1.11, 115.08 -0.97, 138.34 -1.22 M1.7 1.1 C24.7 0.65, 114.55 -2.7, 137.44 -3.16" stroke="#f08c00" stroke-width="1" fill="none"></path></g><g transform="translate(1071.0907863775055 95.51857416646823) rotate(0 69.12476024952122 -0.7826929992211547)"><path d="M109.56 7.93 C115.44 5.18, 125.15 3.71, 137.44 -3.16 M109.56 7.93 C116.64 5.01, 122.26 2.73, 137.44 -3.16" stroke="#f08c00" stroke-width="1" fill="none"></path></g><g transform="translate(1071.0907863775055 95.51857416646823) rotate(0 69.12476024952122 -0.7826929992211547)"><path d="M108.95 -12.58 C114.91 -9.83, 124.78 -5.79, 137.44 -3.16 M108.95 -12.58 C116.05 -10.99, 121.81 -8.75, 137.44 -3.16" stroke="#f08c00" stroke-width="1" fill="none"></path></g></g><mask></mask><g stroke-linecap="round"><g transform="translate(740.6145503683313 716.1675432464892) rotate(0 -61.5672548170503 0.4957777930399061)"><path d="M-0.07 -0.73 C-20.29 -0.88, -101.95 -0.26, -122.53 0.01 M-1.56 1.51 C-21.79 1.39, -102.67 0.92, -123.16 1.04" stroke="#f08c00" stroke-width="1" fill="none"></path></g><g transform="translate(740.6145503683313 716.1675432464892) rotate(0 -61.5672548170503 0.4957777930399061)"><path d="M-94.95 -9.2 C-101.83 -6.12, -108 -5.69, -123.16 1.04 M-94.95 -9.2 C-103.57 -7.08, -111.73 -3.52, -123.16 1.04" stroke="#f08c00" stroke-width="1" fill="none"></path></g><g transform="translate(740.6145503683313 716.1675432464892) rotate(0 -61.5672548170503 0.4957777930399061)"><path d="M-94.97 11.32 C-102 10.23, -108.16 6.47, -123.16 1.04 M-94.97 11.32 C-103.6 7.41, -111.76 4.93, -123.16 1.04" stroke="#f08c00" stroke-width="1" fill="none"></path></g></g><mask></mask><g stroke-linecap="round"><g transform="translate(621.1336199234755 751.7681452770496) rotate(0 60.740465222427474 -0.8935382636126405)"><path d="M0.61 -0.98 C20.8 -1.17, 100.93 -1.76, 121.09 -1.86 M-0.53 1.12 C19.48 1.19, 99.7 -0.14, 119.94 -0.36" stroke="#f08c00" stroke-width="1" fill="none"></path></g><g transform="translate(621.1336199234755 751.7681452770496) rotate(0 60.740465222427474 -0.8935382636126405)"><path d="M91.9 10.29 C98.59 6.37, 108.36 4.12, 119.94 -0.36 M91.9 10.29 C100.59 6.8, 108.74 4.38, 119.94 -0.36" stroke="#f08c00" stroke-width="1" fill="none"></path></g><g transform="translate(621.1336199234755 751.7681452770496) rotate(0 60.740465222427474 -0.8935382636126405)"><path d="M91.61 -10.23 C98.27 -8.11, 108.12 -4.32, 119.94 -0.36 M91.61 -10.23 C100.33 -7.23, 108.57 -3.17, 119.94 -0.36" stroke="#f08c00" stroke-width="1" fill="none"></path></g></g><mask></mask><g stroke-linecap="round"><g transform="translate(1197.5586293449394 720.2887719138562) rotate(0 -71.34893234865945 0.20729905485472955)"><path d="M-0.02 0.36 C-23.82 0.54, -119.17 1.35, -142.78 1.36 M-1.49 -0.49 C-25.45 -0.66, -120.36 -0.63, -143.78 -0.26" stroke="#f08c00" stroke-width="1" fill="none"></path></g><g transform="translate(1197.5586293449394 720.2887719138562) rotate(0 -71.34893234865945 0.20729905485472955)"><path d="M-115.65 -10.71 C-123.51 -7.7, -131.01 -2.78, -143.78 -0.26 M-115.65 -10.71 C-124.68 -7.46, -133.07 -3.57, -143.78 -0.26" stroke="#f08c00" stroke-width="1" fill="none"></path></g><g transform="translate(1197.5586293449394 720.2887719138562) rotate(0 -71.34893234865945 0.20729905485472955)"><path d="M-115.52 9.81 C-123.46 6.63, -131.01 5.35, -143.78 -0.26 M-115.52 9.81 C-124.47 6.89, -132.9 4.61, -143.78 -0.26" stroke="#f08c00" stroke-width="1" fill="none"></path></g></g><mask></mask><g stroke-linecap="round"><g transform="translate(1061.3091088458962 753.9883157008626) rotate(0 69.12476024952116 0.1284085322579358)"><path d="M-0.09 0.95 C23.12 0.93, 116.28 0.23, 139.22 0.27 M-1.59 0.4 C21.55 0.56, 115.78 1.99, 138.79 1.81" stroke="#f08c00" stroke-width="1" fill="none"></path></g><g transform="translate(1061.3091088458962 753.9883157008626) rotate(0 69.12476024952116 0.1284085322579358)"><path d="M110.54 11.92 C120.53 10.54, 127.39 4.78, 138.79 1.81 M110.54 11.92 C120.81 8.77, 132.06 4.5, 138.79 1.81" stroke="#f08c00" stroke-width="1" fill="none"></path></g><g transform="translate(1061.3091088458962 753.9883157008626) rotate(0 69.12476024952116 0.1284085322579358)"><path d="M110.65 -8.6 C120.67 -3.85, 127.5 -3.49, 138.79 1.81 M110.65 -8.6 C120.77 -4.01, 131.99 -0.54, 138.79 1.81" stroke="#f08c00" stroke-width="1" fill="none"></path></g></g><mask></mask></svg>