<svg version="1.1" xmlns="http://www.w3.org/2000/svg" viewBox="0 0 2632.9823307098777 1421.8880442123373" width="2632.9823307098777" height="1421.8880442123373" filter="invert(93%) hue-rotate(180deg)">
  <!-- svg-source:excalidraw -->
  
  <defs>
    <style class="style-fonts">
      @font-face {
        font-family: "Virgil";
        src: url("https://excalidraw.com/Virgil.woff2");
      }
      @font-face {
        font-family: "Cascadia";
        src: url("https://excalidraw.com/Cascadia.woff2");
      }
      @font-face {
        font-family: "Assistant";
        src: url("https://excalidraw.com/Assistant-Regular.woff2");
      }
    </style>
    
  </defs>
  <rect x="0" y="0" width="2632.9823307098777" height="1421.8880442123373" fill="#ffffff"></rect><g stroke-linecap="round" transform="translate(1398.0811559627318 52.696613684141084) rotate(0 612.450587373573 679.5957152640981)"><path d="M32 0 C445 3.86, 857.42 2.93, 1192.9 0 M32 0 C288.69 -4.39, 545.07 -4.39, 1192.9 0 M1192.9 0 C1214.69 -1.89, 1226.69 8.85, 1224.9 32 M1192.9 0 C1216.31 1.48, 1225.97 10.22, 1224.9 32 M1224.9 32 C1229.33 493.26, 1228.22 955.01, 1224.9 1327.19 M1224.9 32 C1224.35 523.35, 1224.82 1013.8, 1224.9 1327.19 M1224.9 1327.19 C1225.27 1348.96, 1215.72 1358.67, 1192.9 1359.19 M1224.9 1327.19 C1225.85 1350.45, 1215.48 1360.9, 1192.9 1359.19 M1192.9 1359.19 C731.92 1360.35, 271.91 1360.05, 32 1359.19 M1192.9 1359.19 C769.99 1355.85, 347.11 1356.27, 32 1359.19 M32 1359.19 C11.93 1358.78, 1.03 1347.85, 0 1327.19 M32 1359.19 C9.04 1360.55, -1.53 1347.46, 0 1327.19 M0 1327.19 C-0.59 905.69, -0.3 485.4, 0 32 M0 1327.19 C1.59 869.58, 1.31 411.09, 0 32 M0 32 C0.11 9.26, 11.83 -0.71, 32 0 M0 32 C-0.6 9.46, 10.35 -2.1, 32 0" stroke="#1e1e1e" stroke-width="1" fill="none"></path></g><g transform="translate(2494.8924896574554 10) rotate(0 53.07500076293945 17.5)"><text x="0" y="0" font-family="Virgil, Segoe UI Emoji" font-size="28px" fill="#1e1e1e" text-anchor="start" style="white-space: pre;" direction="ltr" dominant-baseline="text-before-edge">Express</text></g><g stroke-linecap="round" transform="translate(2128.2697945243244 793.1743633028982) rotate(0 221 221)"><path d="M32 0 C153.2 -0.61, 276.44 -0.64, 410 0 M32 0 C114.62 -2.34, 196.31 -2.21, 410 0 M410 0 C430.25 1.45, 443.87 12.24, 442 32 M410 0 C430.68 1.97, 441.23 10.42, 442 32 M442 32 C440.37 172.01, 440.55 313.97, 442 410 M442 32 C439.6 126.87, 439.87 223.03, 442 410 M442 410 C443 433.07, 430.78 443.41, 410 442 M442 410 C444.26 432.94, 431.24 444.22, 410 442 M410 442 C289.09 441.92, 168.88 440.79, 32 442 M410 442 C293.36 443.99, 176.63 443.21, 32 442 M32 442 C12.53 441.93, -0.19 431.03, 0 410 M32 442 C12.11 440.56, -1.86 433.04, 0 410 M0 410 C1.81 283.56, 0.47 157.5, 0 32 M0 410 C2.31 278.88, 2.03 146.79, 0 32 M0 32 C1.46 11.79, 10.48 0.83, 32 0 M0 32 C-2.16 10.03, 11.32 1.51, 32 0" stroke="#1e1e1e" stroke-width="1" fill="none"></path></g><g transform="translate(2476.2697945243244 753.1743633028982) rotate(0 39.42499923706055 17.5)"><text x="0" y="0" font-family="Virgil, Segoe UI Emoji" font-size="28px" fill="#1e1e1e" text-anchor="start" style="white-space: pre;" direction="ltr" dominant-baseline="text-before-edge">CRUD</text></g><g stroke-linecap="round" transform="translate(2123.2559259748523 193.92866407791917) rotate(0 221 221)"><path d="M32 0 C115.89 -0.97, 202.32 -2.27, 410 0 M32 0 C110.64 -0.84, 189.91 -0.25, 410 0 M410 0 C431.24 0.41, 441.48 9.52, 442 32 M410 0 C432.06 -1.53, 440.73 10.74, 442 32 M442 32 C441.6 139.44, 440.94 248.15, 442 410 M442 32 C441.85 108.17, 440.84 184.69, 442 410 M442 410 C441.48 430.6, 433.3 440.12, 410 442 M442 410 C444.02 431.04, 432.81 441.33, 410 442 M410 442 C287.72 442.83, 166.58 444.4, 32 442 M410 442 C276.15 443.73, 140.72 443.02, 32 442 M32 442 C11.33 443.79, 1.82 430.29, 0 410 M32 442 C12.66 441.11, -1.26 429.92, 0 410 M0 410 C2.2 317.07, 1.44 225.13, 0 32 M0 410 C1.1 288.61, 1.74 167.19, 0 32 M0 32 C-1 12.53, 11.42 1.31, 32 0 M0 32 C-0.6 11.9, 11.75 -2.25, 32 0" stroke="#1e1e1e" stroke-width="1" fill="none"></path></g><g transform="translate(2405.2559259748523 147.92866407791917) rotate(0 73.64167022705078 17.5)"><text x="0" y="0" font-family="Virgil, Segoe UI Emoji" font-size="28px" fill="#1e1e1e" text-anchor="start" style="white-space: pre;" direction="ltr" dominant-baseline="text-before-edge">Controllers</text></g><g stroke-linecap="round" transform="translate(1474.7674033349822 774.5507947378865) rotate(0 221 280.1386109537598)"><path d="M32 0 C169.92 -0.02, 307.33 -0.1, 410 0 M32 0 C108.49 -2.36, 184.15 -2.27, 410 0 M410 0 C431.05 -1.05, 441.24 12.37, 442 32 M410 0 C433.37 -1.2, 441.82 10.3, 442 32 M442 32 C442.9 189.85, 442.7 349.01, 442 528.28 M442 32 C442.85 175.18, 443.45 318.73, 442 528.28 M442 528.28 C443.18 550.37, 431.41 560.26, 410 560.28 M442 528.28 C442.04 549.63, 433.62 559.63, 410 560.28 M410 560.28 C282.27 558.46, 153.44 558.99, 32 560.28 M410 560.28 C275.08 558.95, 141.33 558.97, 32 560.28 M32 560.28 C11.53 558.42, -1.01 548.99, 0 528.28 M32 560.28 C8.9 558.2, 2.05 550.23, 0 528.28 M0 528.28 C-0.02 404.77, -0.08 282.81, 0 32 M0 528.28 C-1.66 339.95, -1.69 151.69, 0 32 M0 32 C-1.02 12.2, 10.54 -1.09, 32 0 M0 32 C-0.38 9.51, 12.52 -1.22, 32 0" stroke="#1e1e1e" stroke-width="1" fill="none"></path></g><g transform="translate(1822.7674033349822 734.5507947378865) rotate(0 48.36666488647461 17.5)"><text x="0" y="0" font-family="Virgil, Segoe UI Emoji" font-size="28px" fill="#1e1e1e" text-anchor="start" style="white-space: pre;" direction="ltr" dominant-baseline="text-before-edge">Routes</text></g><g stroke-linecap="round" transform="translate(1468.707858183001 182.02764268004648) rotate(0 269.2295467972408 221)"><path d="M32 0 C136.02 0.25, 239.41 -1.05, 506.46 0 M32 0 C221.5 -0.95, 410.81 -1.38, 506.46 0 M506.46 0 C526.01 -0.19, 539.25 10.68, 538.46 32 M506.46 0 C526.96 1.67, 540.01 11.87, 538.46 32 M538.46 32 C538.92 140.86, 538.82 250.76, 538.46 410 M538.46 32 C540.4 139.92, 540.19 247.46, 538.46 410 M538.46 410 C539.63 431.46, 528.08 441.65, 506.46 442 M538.46 410 C539.26 432.88, 529.55 439.96, 506.46 442 M506.46 442 C352.56 442.14, 199.92 441.97, 32 442 M506.46 442 C401.08 442.83, 295.99 443.11, 32 442 M32 442 C9.15 443.15, 0.54 431.74, 0 410 M32 442 C11.06 441.48, -1.97 430.03, 0 410 M0 410 C-0.93 281.43, -0.4 155.47, 0 32 M0 410 C0.99 322.02, 0.62 234.47, 0 32 M0 32 C0.37 10.72, 9.88 1.29, 32 0 M0 32 C1.44 12.95, 10.63 -1.32, 32 0" stroke="#1e1e1e" stroke-width="1" fill="none"></path></g><g transform="translate(1851.1669517774826 140.02764268004648) rotate(0 72.60832977294922 17.5)"><text x="0" y="0" font-family="Virgil, Segoe UI Emoji" font-size="28px" fill="#1e1e1e" text-anchor="start" style="white-space: pre;" direction="ltr" dominant-baseline="text-before-edge">Middleware</text></g><g transform="translate(2204.2697945243244 871.1743633028982) rotate(0 139.125 122.5)"><text x="0" y="0" font-family="Virgil, Segoe UI Emoji" font-size="28px" fill="#1e1e1e" text-anchor="start" style="white-space: pre;" direction="ltr" dominant-baseline="text-before-edge">CREATE</text><text x="0" y="35" font-family="Virgil, Segoe UI Emoji" font-size="28px" fill="#1e1e1e" text-anchor="start" style="white-space: pre;" direction="ltr" dominant-baseline="text-before-edge">READ</text><text x="0" y="70" font-family="Virgil, Segoe UI Emoji" font-size="28px" fill="#1e1e1e" text-anchor="start" style="white-space: pre;" direction="ltr" dominant-baseline="text-before-edge">UPDATE</text><text x="0" y="105" font-family="Virgil, Segoe UI Emoji" font-size="28px" fill="#1e1e1e" text-anchor="start" style="white-space: pre;" direction="ltr" dominant-baseline="text-before-edge">DELETE</text><text x="0" y="140" font-family="Virgil, Segoe UI Emoji" font-size="28px" fill="#1e1e1e" text-anchor="start" style="white-space: pre;" direction="ltr" dominant-baseline="text-before-edge"></text><text x="0" y="175" font-family="Virgil, Segoe UI Emoji" font-size="28px" fill="#1e1e1e" text-anchor="start" style="white-space: pre;" direction="ltr" dominant-baseline="text-before-edge">- rows/entries within</text><text x="0" y="210" font-family="Virgil, Segoe UI Emoji" font-size="28px" fill="#1e1e1e" text-anchor="start" style="white-space: pre;" direction="ltr" dominant-baseline="text-before-edge">the database</text></g><g transform="translate(1510.3274406323162 816.1706723015886) rotate(0 198.39999389648438 245)"><text x="0" y="0" font-family="Virgil, Segoe UI Emoji" font-size="28px" fill="#1e1e1e" text-anchor="start" style="white-space: pre;" direction="ltr" dominant-baseline="text-before-edge">Define an endpoint</text><text x="0" y="35" font-family="Virgil, Segoe UI Emoji" font-size="28px" fill="#1e1e1e" text-anchor="start" style="white-space: pre;" direction="ltr" dominant-baseline="text-before-edge">HTTP request (GET, POST,</text><text x="0" y="70" font-family="Virgil, Segoe UI Emoji" font-size="28px" fill="#1e1e1e" text-anchor="start" style="white-space: pre;" direction="ltr" dominant-baseline="text-before-edge">PUT, DELETE, PATCH)</text><text x="0" y="105" font-family="Virgil, Segoe UI Emoji" font-size="28px" fill="#1e1e1e" text-anchor="start" style="white-space: pre;" direction="ltr" dominant-baseline="text-before-edge">Request -&gt; Response</text><text x="0" y="140" font-family="Virgil, Segoe UI Emoji" font-size="28px" fill="#1e1e1e" text-anchor="start" style="white-space: pre;" direction="ltr" dominant-baseline="text-before-edge">(JSON, TXT, HTML, JS,</text><text x="0" y="175" font-family="Virgil, Segoe UI Emoji" font-size="28px" fill="#1e1e1e" text-anchor="start" style="white-space: pre;" direction="ltr" dominant-baseline="text-before-edge">CSS, PNG, JPEG, MP3, MP4,</text><text x="0" y="210" font-family="Virgil, Segoe UI Emoji" font-size="28px" fill="#1e1e1e" text-anchor="start" style="white-space: pre;" direction="ltr" dominant-baseline="text-before-edge">ETC)</text><text x="0" y="245" font-family="Virgil, Segoe UI Emoji" font-size="28px" fill="#1e1e1e" text-anchor="start" style="white-space: pre;" direction="ltr" dominant-baseline="text-before-edge"></text><text x="0" y="280" font-family="Virgil, Segoe UI Emoji" font-size="28px" fill="#1e1e1e" text-anchor="start" style="white-space: pre;" direction="ltr" dominant-baseline="text-before-edge">RESTFUL API</text><text x="0" y="315" font-family="Virgil, Segoe UI Emoji" font-size="28px" fill="#1e1e1e" text-anchor="start" style="white-space: pre;" direction="ltr" dominant-baseline="text-before-edge">    - Standard</text><text x="0" y="350" font-family="Virgil, Segoe UI Emoji" font-size="28px" fill="#1e1e1e" text-anchor="start" style="white-space: pre;" direction="ltr" dominant-baseline="text-before-edge">    - Statelessness</text><text x="0" y="385" font-family="Virgil, Segoe UI Emoji" font-size="28px" fill="#1e1e1e" text-anchor="start" style="white-space: pre;" direction="ltr" dominant-baseline="text-before-edge">    - Layered System</text><text x="0" y="420" font-family="Virgil, Segoe UI Emoji" font-size="28px" fill="#1e1e1e" text-anchor="start" style="white-space: pre;" direction="ltr" dominant-baseline="text-before-edge">    - Cacheability</text><text x="0" y="455" font-family="Virgil, Segoe UI Emoji" font-size="28px" fill="#1e1e1e" text-anchor="start" style="white-space: pre;" direction="ltr" dominant-baseline="text-before-edge">    - Code on Demand</text></g><g stroke-linecap="round" transform="translate(479.42935370247324 692.7046120463756) rotate(0 186.85601711067966 117.45235361242749)"><path d="M32 0 C130.29 -1.19, 229.38 -0.42, 341.71 0 M32 0 C121.15 -2.22, 209.77 -2.78, 341.71 0 M341.71 0 C363.08 0.65, 372.79 10.13, 373.71 32 M341.71 0 C361.31 -0.22, 375.44 8.67, 373.71 32 M373.71 32 C373.59 70.58, 372.33 110.73, 373.71 202.9 M373.71 32 C373.72 88.85, 374.22 143.98, 373.71 202.9 M373.71 202.9 C373.85 224.4, 364.35 233.53, 341.71 234.9 M373.71 202.9 C375.5 225.43, 362.42 236.8, 341.71 234.9 M341.71 234.9 C272.85 235.31, 207.6 237.01, 32 234.9 M341.71 234.9 C240.82 234.93, 139.44 234.87, 32 234.9 M32 234.9 C12.25 234.04, -0.46 225.81, 0 202.9 M32 234.9 C10.46 234.37, -0.55 225.06, 0 202.9 M0 202.9 C-0.57 152.43, -0.46 98.18, 0 32 M0 202.9 C2 138.72, 1.17 75.33, 0 32 M0 32 C0.62 11.2, 11.8 -0.59, 32 0 M0 32 C0.93 8.87, 11.16 0.68, 32 0" stroke="#2f9e44" stroke-width="1" fill="none"></path></g><g transform="translate(778.0145257777222 653.4188433151066) rotate(0 30.508333206176758 17.5)"><text x="0" y="0" font-family="Virgil, Segoe UI Emoji" font-size="28px" fill="#2f9e44" text-anchor="start" style="white-space: pre;" direction="ltr" dominant-baseline="text-before-edge">PUT</text></g><g stroke-linecap="round" transform="translate(937.6658324535138 690.3622222074973) rotate(0 186.85601711067966 117.45235361242749)"><path d="M32 0 C142.8 0.73, 253.35 1.29, 341.71 0 M32 0 C153.46 0.68, 274.58 1.62, 341.71 0 M341.71 0 C364.15 -0.59, 373.65 11.02, 373.71 32 M341.71 0 C360.91 -1.99, 375.52 11.33, 373.71 32 M373.71 32 C371.98 77.01, 373.02 124.07, 373.71 202.9 M373.71 32 C374.48 73.93, 372.82 114.68, 373.71 202.9 M373.71 202.9 C375.53 223.81, 363.64 233.3, 341.71 234.9 M373.71 202.9 C375.06 222.78, 360.86 232.91, 341.71 234.9 M341.71 234.9 C265.32 233.79, 190.21 232.86, 32 234.9 M341.71 234.9 C230.12 237.03, 117.74 236.88, 32 234.9 M32 234.9 C9.41 233.65, 0.55 225.56, 0 202.9 M32 234.9 C8.62 237.15, -2.04 224.71, 0 202.9 M0 202.9 C1.26 154.09, 1.61 108.97, 0 32 M0 202.9 C0.55 158.53, 0.51 113.38, 0 32 M0 32 C0.46 9.57, 12.49 -1.15, 32 0 M0 32 C2.13 12.21, 10.76 -2.25, 32 0" stroke="#2f9e44" stroke-width="1" fill="none"></path></g><g transform="translate(1211.817795800227 651.8168537407282) rotate(0 46.42499923706055 17.5)"><text x="0" y="0" font-family="Virgil, Segoe UI Emoji" font-size="28px" fill="#2f9e44" text-anchor="start" style="white-space: pre;" direction="ltr" dominant-baseline="text-before-edge">PATCH</text></g><g transform="translate(10 270.5616932865987) rotate(0 182.4250030517578 350)"><text x="0" y="0" font-family="Virgil, Segoe UI Emoji" font-size="28px" fill="#2f9e44" text-anchor="start" style="white-space: pre;" direction="ltr" dominant-baseline="text-before-edge">Students: [</text><text x="0" y="35" font-family="Virgil, Segoe UI Emoji" font-size="28px" fill="#2f9e44" text-anchor="start" style="white-space: pre;" direction="ltr" dominant-baseline="text-before-edge">    {</text><text x="0" y="70" font-family="Virgil, Segoe UI Emoji" font-size="28px" fill="#2f9e44" text-anchor="start" style="white-space: pre;" direction="ltr" dominant-baseline="text-before-edge">        id: 1,</text><text x="0" y="105" font-family="Virgil, Segoe UI Emoji" font-size="28px" fill="#2f9e44" text-anchor="start" style="white-space: pre;" direction="ltr" dominant-baseline="text-before-edge">        fName: "Jamy",</text><text x="0" y="140" font-family="Virgil, Segoe UI Emoji" font-size="28px" fill="#2f9e44" text-anchor="start" style="white-space: pre;" direction="ltr" dominant-baseline="text-before-edge">        lName: "Guy",</text><text x="0" y="175" font-family="Virgil, Segoe UI Emoji" font-size="28px" fill="#2f9e44" text-anchor="start" style="white-space: pre;" direction="ltr" dominant-baseline="text-before-edge">        sex: "M"</text><text x="0" y="210" font-family="Virgil, Segoe UI Emoji" font-size="28px" fill="#2f9e44" text-anchor="start" style="white-space: pre;" direction="ltr" dominant-baseline="text-before-edge">    },</text><text x="0" y="245" font-family="Virgil, Segoe UI Emoji" font-size="28px" fill="#2f9e44" text-anchor="start" style="white-space: pre;" direction="ltr" dominant-baseline="text-before-edge">    {</text><text x="0" y="280" font-family="Virgil, Segoe UI Emoji" font-size="28px" fill="#2f9e44" text-anchor="start" style="white-space: pre;" direction="ltr" dominant-baseline="text-before-edge">        id: 2,</text><text x="0" y="315" font-family="Virgil, Segoe UI Emoji" font-size="28px" fill="#2f9e44" text-anchor="start" style="white-space: pre;" direction="ltr" dominant-baseline="text-before-edge">        fName: "Nazianah",</text><text x="0" y="350" font-family="Virgil, Segoe UI Emoji" font-size="28px" fill="#2f9e44" text-anchor="start" style="white-space: pre;" direction="ltr" dominant-baseline="text-before-edge">        lName: "Jhakri",</text><text x="0" y="385" font-family="Virgil, Segoe UI Emoji" font-size="28px" fill="#2f9e44" text-anchor="start" style="white-space: pre;" direction="ltr" dominant-baseline="text-before-edge">        sex: "F"</text><text x="0" y="420" font-family="Virgil, Segoe UI Emoji" font-size="28px" fill="#2f9e44" text-anchor="start" style="white-space: pre;" direction="ltr" dominant-baseline="text-before-edge">    },</text><text x="0" y="455" font-family="Virgil, Segoe UI Emoji" font-size="28px" fill="#2f9e44" text-anchor="start" style="white-space: pre;" direction="ltr" dominant-baseline="text-before-edge">    {</text><text x="0" y="490" font-family="Virgil, Segoe UI Emoji" font-size="28px" fill="#2f9e44" text-anchor="start" style="white-space: pre;" direction="ltr" dominant-baseline="text-before-edge">        id: 3,</text><text x="0" y="525" font-family="Virgil, Segoe UI Emoji" font-size="28px" fill="#2f9e44" text-anchor="start" style="white-space: pre;" direction="ltr" dominant-baseline="text-before-edge">        fName: "Jevin",</text><text x="0" y="560" font-family="Virgil, Segoe UI Emoji" font-size="28px" fill="#2f9e44" text-anchor="start" style="white-space: pre;" direction="ltr" dominant-baseline="text-before-edge">        lName: "Woomur",</text><text x="0" y="595" font-family="Virgil, Segoe UI Emoji" font-size="28px" fill="#2f9e44" text-anchor="start" style="white-space: pre;" direction="ltr" dominant-baseline="text-before-edge">        sex: "X"</text><text x="0" y="630" font-family="Virgil, Segoe UI Emoji" font-size="28px" fill="#2f9e44" text-anchor="start" style="white-space: pre;" direction="ltr" dominant-baseline="text-before-edge">    }</text><text x="0" y="665" font-family="Virgil, Segoe UI Emoji" font-size="28px" fill="#2f9e44" text-anchor="start" style="white-space: pre;" direction="ltr" dominant-baseline="text-before-edge">]</text></g><g transform="translate(660.0847896425312 570.738989996582) rotate(0 233.72500610351562 17.5)"><text x="0" y="0" font-family="Virgil, Segoe UI Emoji" font-size="28px" fill="#1e1e1e" text-anchor="start" style="white-space: pre;" direction="ltr" dominant-baseline="text-before-edge">Goal: Update sex of Jevin to "M"</text></g><g transform="translate(975.8734889101788 722.317565645053) rotate(0 81.42500305175781 70)"><text x="0" y="0" font-family="Virgil, Segoe UI Emoji" font-size="28px" fill="#2f9e44" text-anchor="start" style="white-space: pre;" direction="ltr" dominant-baseline="text-before-edge">{</text><text x="0" y="35" font-family="Virgil, Segoe UI Emoji" font-size="28px" fill="#2f9e44" text-anchor="start" style="white-space: pre;" direction="ltr" dominant-baseline="text-before-edge">    id: 3,</text><text x="0" y="70" font-family="Virgil, Segoe UI Emoji" font-size="28px" fill="#2f9e44" text-anchor="start" style="white-space: pre;" direction="ltr" dominant-baseline="text-before-edge">    sex: "M"</text><text x="0" y="105" font-family="Virgil, Segoe UI Emoji" font-size="28px" fill="#2f9e44" text-anchor="start" style="white-space: pre;" direction="ltr" dominant-baseline="text-before-edge">}</text></g><g transform="translate(510.9087565660757 708.5853702418335) rotate(0 138.51666259765625 105)"><text x="0" y="0" font-family="Virgil, Segoe UI Emoji" font-size="28px" fill="#2f9e44" text-anchor="start" style="white-space: pre;" direction="ltr" dominant-baseline="text-before-edge">{</text><text x="0" y="35" font-family="Virgil, Segoe UI Emoji" font-size="28px" fill="#2f9e44" text-anchor="start" style="white-space: pre;" direction="ltr" dominant-baseline="text-before-edge">    id: 3,</text><text x="0" y="70" font-family="Virgil, Segoe UI Emoji" font-size="28px" fill="#2f9e44" text-anchor="start" style="white-space: pre;" direction="ltr" dominant-baseline="text-before-edge">    fName: "Jevin",</text><text x="0" y="105" font-family="Virgil, Segoe UI Emoji" font-size="28px" fill="#2f9e44" text-anchor="start" style="white-space: pre;" direction="ltr" dominant-baseline="text-before-edge">    lName: "Woomur",</text><text x="0" y="140" font-family="Virgil, Segoe UI Emoji" font-size="28px" fill="#2f9e44" text-anchor="start" style="white-space: pre;" direction="ltr" dominant-baseline="text-before-edge">    sex: "M"</text><text x="0" y="175" font-family="Virgil, Segoe UI Emoji" font-size="28px" fill="#2f9e44" text-anchor="start" style="white-space: pre;" direction="ltr" dominant-baseline="text-before-edge">}</text></g><g transform="translate(466.0182799107688 999.063298457796) rotate(0 151.80833435058594 105)"><text x="0" y="0" font-family="Virgil, Segoe UI Emoji" font-size="28px" fill="#1e1e1e" text-anchor="start" style="white-space: pre;" direction="ltr" dominant-baseline="text-before-edge">Routes:</text><text x="0" y="35" font-family="Virgil, Segoe UI Emoji" font-size="28px" fill="#1e1e1e" text-anchor="start" style="white-space: pre;" direction="ltr" dominant-baseline="text-before-edge">    /students/</text><text x="0" y="70" font-family="Virgil, Segoe UI Emoji" font-size="28px" fill="#1e1e1e" text-anchor="start" style="white-space: pre;" direction="ltr" dominant-baseline="text-before-edge">    /students/3/</text><text x="0" y="105" font-family="Virgil, Segoe UI Emoji" font-size="28px" fill="#1e1e1e" text-anchor="start" style="white-space: pre;" direction="ltr" dominant-baseline="text-before-edge">    /students/sex/</text><text x="0" y="140" font-family="Virgil, Segoe UI Emoji" font-size="28px" fill="#1e1e1e" text-anchor="start" style="white-space: pre;" direction="ltr" dominant-baseline="text-before-edge">    /students/fName/</text><text x="0" y="175" font-family="Virgil, Segoe UI Emoji" font-size="28px" fill="#1e1e1e" text-anchor="start" style="white-space: pre;" direction="ltr" dominant-baseline="text-before-edge">    /students/lName/</text></g><g transform="translate(867.9311698877773 1028.91968457038) rotate(0 167.6666717529297 87.5)"><text x="0" y="0" font-family="Virgil, Segoe UI Emoji" font-size="28px" fill="#1e1e1e" text-anchor="start" style="white-space: pre;" direction="ltr" dominant-baseline="text-before-edge">- All students</text><text x="0" y="35" font-family="Virgil, Segoe UI Emoji" font-size="28px" fill="#1e1e1e" text-anchor="start" style="white-space: pre;" direction="ltr" dominant-baseline="text-before-edge">- Jevin</text><text x="0" y="70" font-family="Virgil, Segoe UI Emoji" font-size="28px" fill="#1e1e1e" text-anchor="start" style="white-space: pre;" direction="ltr" dominant-baseline="text-before-edge">- All students of sex</text><text x="0" y="105" font-family="Virgil, Segoe UI Emoji" font-size="28px" fill="#1e1e1e" text-anchor="start" style="white-space: pre;" direction="ltr" dominant-baseline="text-before-edge">- All students of fName</text><text x="0" y="140" font-family="Virgil, Segoe UI Emoji" font-size="28px" fill="#1e1e1e" text-anchor="start" style="white-space: pre;" direction="ltr" dominant-baseline="text-before-edge">- All students of lName</text></g><g transform="translate(2161.2399487186467 219.79114632934125) rotate(0 159.94166564941406 105)"><text x="0" y="0" font-family="Virgil, Segoe UI Emoji" font-size="28px" fill="#1e1e1e" text-anchor="start" style="white-space: pre;" direction="ltr" dominant-baseline="text-before-edge">Request -&gt; Response</text><text x="0" y="35" font-family="Virgil, Segoe UI Emoji" font-size="28px" fill="#1e1e1e" text-anchor="start" style="white-space: pre;" direction="ltr" dominant-baseline="text-before-edge">Business logic</text><text x="0" y="70" font-family="Virgil, Segoe UI Emoji" font-size="28px" fill="#1e1e1e" text-anchor="start" style="white-space: pre;" direction="ltr" dominant-baseline="text-before-edge">    validation</text><text x="0" y="105" font-family="Virgil, Segoe UI Emoji" font-size="28px" fill="#1e1e1e" text-anchor="start" style="white-space: pre;" direction="ltr" dominant-baseline="text-before-edge">    authentication</text><text x="0" y="140" font-family="Virgil, Segoe UI Emoji" font-size="28px" fill="#1e1e1e" text-anchor="start" style="white-space: pre;" direction="ltr" dominant-baseline="text-before-edge">    sanitization</text><text x="0" y="175" font-family="Virgil, Segoe UI Emoji" font-size="28px" fill="#1e1e1e" text-anchor="start" style="white-space: pre;" direction="ltr" dominant-baseline="text-before-edge">    database retrieval</text></g><g transform="translate(1508.9927444130972 210.60456598699602) rotate(0 226.51666259765625 70)"><text x="0" y="0" font-family="Virgil, Segoe UI Emoji" font-size="28px" fill="#1e1e1e" text-anchor="start" style="white-space: pre;" direction="ltr" dominant-baseline="text-before-edge">Controller - Middleware - Routes</text><text x="0" y="35" font-family="Virgil, Segoe UI Emoji" font-size="28px" fill="#1e1e1e" text-anchor="start" style="white-space: pre;" direction="ltr" dominant-baseline="text-before-edge"></text><text x="0" y="70" font-family="Virgil, Segoe UI Emoji" font-size="28px" fill="#1e1e1e" text-anchor="start" style="white-space: pre;" direction="ltr" dominant-baseline="text-before-edge">- Authentication</text><text x="0" y="105" font-family="Virgil, Segoe UI Emoji" font-size="28px" fill="#1e1e1e" text-anchor="start" style="white-space: pre;" direction="ltr" dominant-baseline="text-before-edge">- Ip filtering</text></g></svg>