<svg version="1.1" xmlns="http://www.w3.org/2000/svg" viewBox="0 0 3649.8608422477464 954.6194300157331" width="3649.8608422477464" height="954.6194300157331" filter="invert(93%) hue-rotate(180deg)">
  <!-- svg-source:excalidraw -->
  
  <defs>
    <style class="style-fonts">
      @font-face {
        font-family: "Virgil";
        src: url("https://excalidraw.com/Virgil.woff2");
      }
      @font-face {
        font-family: "Cascadia";
        src: url("https://excalidraw.com/Cascadia.woff2");
      }
      @font-face {
        font-family: "Assistant";
        src: url("https://excalidraw.com/Assistant-Regular.woff2");
      }
    </style>
    
  </defs>
  <rect x="0" y="0" width="3649.8608422477464" height="954.6194300157331" fill="#ffffff"></rect><g stroke-linecap="round" transform="translate(10 48.85522246286018) rotate(0 457.6787491964669 432.45236144548016)"><path d="M32 0 C227.35 2.77, 423.82 2.54, 883.36 0 M32 0 C287.31 0.45, 543 0.38, 883.36 0 M883.36 0 C904.16 0.38, 915.53 8.69, 915.36 32 M883.36 0 C903.31 -0.82, 916.42 10.13, 915.36 32 M915.36 32 C912.97 318.08, 913.76 604.13, 915.36 832.9 M915.36 32 C917.52 197.46, 917.91 362.47, 915.36 832.9 M915.36 832.9 C913.52 854.29, 903.28 865.92, 883.36 864.9 M915.36 832.9 C917.11 853.59, 906.21 863.09, 883.36 864.9 M883.36 864.9 C595.03 864.15, 307.53 864.52, 32 864.9 M883.36 864.9 C546.54 864.79, 209.37 864.97, 32 864.9 M32 864.9 C9.89 866.52, -0.75 855.09, 0 832.9 M32 864.9 C12.84 863.44, -2.23 853.41, 0 832.9 M0 832.9 C-0.51 569.97, -0.12 305.03, 0 32 M0 832.9 C0.26 512.88, 0.56 193.89, 0 32 M0 32 C-0.73 11.82, 11.71 1.66, 32 0 M0 32 C1.12 11.11, 11.07 1.71, 32 0" stroke="#e03131" stroke-width="1" fill="none"></path></g><g stroke-linecap="round" transform="translate(207.99846024935323 281.5918423313469) rotate(0 289.3043537877352 215.9942369265582)"><path d="M32 0 C149.79 -0.72, 266.47 -0.55, 546.61 0 M32 0 C177.34 0.53, 322.62 0.83, 546.61 0 M546.61 0 C568.11 -1.98, 577.41 9.96, 578.61 32 M546.61 0 C569.01 -0.54, 579.93 9.06, 578.61 32 M578.61 32 C579.16 168.32, 577.01 307.02, 578.61 399.99 M578.61 32 C576.55 108.11, 575.95 184.94, 578.61 399.99 M578.61 399.99 C577.19 422.33, 569.47 431.42, 546.61 431.99 M578.61 399.99 C580.12 419.5, 568.83 433.33, 546.61 431.99 M546.61 431.99 C405.62 432.7, 264.3 431.5, 32 431.99 M546.61 431.99 C397.23 433.47, 247.48 433.41, 32 431.99 M32 431.99 C9.91 432.84, 1.89 420.05, 0 399.99 M32 431.99 C8.44 431.16, 0.67 421.59, 0 399.99 M0 399.99 C0.79 315.45, 1.64 233.19, 0 32 M0 399.99 C0.49 308.3, -0.17 216.22, 0 32 M0 32 C1.04 12.33, 11.64 0.38, 32 0 M0 32 C0.41 12.38, 12.8 -1.84, 32 0" stroke="#e03131" stroke-width="1" fill="none"></path></g><g transform="translate(651.7952750733966 10) rotate(0 130.86666870117188 17.5)"><text x="0" y="0" font-family="Virgil, Segoe UI Emoji" font-size="28px" fill="#e03131" text-anchor="start" style="white-space: pre;" direction="ltr" dominant-baseline="text-before-edge">Website / Frontend</text></g><g transform="translate(415.62845565483804 346.53771767144826) rotate(0 80.0999984741211 17.5)"><text x="0" y="0" font-family="Virgil, Segoe UI Emoji" font-size="28px" fill="#e03131" text-anchor="start" style="white-space: pre;" direction="ltr" dominant-baseline="text-before-edge">Contact Us</text></g><g stroke-linecap="round" transform="translate(309.35338691648576 438.0523601961413) rotate(0 177.61712877104173 22.5)"><path d="M11.25 0 C120.88 1.02, 230.76 0.74, 343.98 0 M11.25 0 C117.01 2, 223.89 2.08, 343.98 0 M343.98 0 C352.63 -1.39, 356.68 3.37, 355.23 11.25 M343.98 0 C350.88 1.83, 353.93 1.6, 355.23 11.25 M355.23 11.25 C355.58 19.89, 353.91 26.46, 355.23 33.75 M355.23 11.25 C355.84 17.78, 355.73 24.08, 355.23 33.75 M355.23 33.75 C356 42.41, 350.99 44.66, 343.98 45 M355.23 33.75 C355.51 42.82, 352.82 47.21, 343.98 45 M343.98 45 C275.74 46.66, 207.37 45.78, 11.25 45 M343.98 45 C218.01 45.53, 90.09 45.71, 11.25 45 M11.25 45 C4.33 45.23, -1.47 40.89, 0 33.75 M11.25 45 C5.51 45.7, -2.21 43.53, 0 33.75 M0 33.75 C-1.86 28.6, 1.32 19.9, 0 11.25 M0 33.75 C0.37 25.89, 0.06 18.4, 0 11.25 M0 11.25 C1.85 2.15, 5.56 -1.56, 11.25 0 M0 11.25 C0.63 5.53, 2.26 1.08, 11.25 0" stroke="#e03131" stroke-width="1" fill="none"></path></g><g transform="translate(452.58718057400165 443.0523601961413) rotate(0 34.38333511352539 17.5)"><text x="34.38333511352539" y="0" font-family="Virgil, Segoe UI Emoji" font-size="28px" fill="#e03131" text-anchor="middle" style="white-space: pre;" direction="ltr" dominant-baseline="text-before-edge">Email</text></g><g stroke-linecap="round" transform="translate(418.5805408975684 500.04615029351226) rotate(0 71.8340742398118 22.5)"><path d="M11.25 0 C47.26 0.49, 80.53 -0.88, 132.42 0 M11.25 0 C43.88 -0.41, 76.09 0.09, 132.42 0 M132.42 0 C139.39 1.59, 142.54 1.88, 143.67 11.25 M132.42 0 C141.73 -2.12, 141.56 4.39, 143.67 11.25 M143.67 11.25 C143.6 16.72, 144.55 26.54, 143.67 33.75 M143.67 11.25 C144.2 17.95, 143.57 23.31, 143.67 33.75 M143.67 33.75 C143.91 42.61, 141.08 46.92, 132.42 45 M143.67 33.75 C141.54 41.03, 141.25 46.23, 132.42 45 M132.42 45 C94.54 43.77, 54.29 46.42, 11.25 45 M132.42 45 C104.09 44.68, 74.45 44.38, 11.25 45 M11.25 45 C5.28 45.61, -1.93 43.23, 0 33.75 M11.25 45 C3.55 43.85, -0.05 38.98, 0 33.75 M0 33.75 C1.02 26.46, 1.53 18.06, 0 11.25 M0 33.75 C0.89 25.77, 0.86 18.61, 0 11.25 M0 11.25 C0.55 5.3, 2.45 0.94, 11.25 0 M0 11.25 C-0.54 5.85, 5.13 -2.22, 11.25 0" stroke="#e03131" stroke-width="1" fill="none"></path></g><g transform="translate(432.1146159003192 505.04615029351226) rotate(0 58.29999923706055 17.5)"><text x="58.29999923706055" y="0" font-family="Virgil, Segoe UI Emoji" font-size="28px" fill="#e03131" text-anchor="middle" style="white-space: pre;" direction="ltr" dominant-baseline="text-before-edge">SUBMIT</text></g><g stroke-linecap="round"><g transform="translate(925.5275675527446 435.29068729675237) rotate(0 217.48462944495986 0)"><path d="M-0.72 -0.43 C71.85 -0.27, 362.8 -0.21, 435.52 -0.28 M1.1 -1.69 C73.56 -1.26, 362.51 0.82, 434.87 1.11" stroke="#e03131" stroke-width="1" fill="none"></path></g><g transform="translate(925.5275675527446 435.29068729675237) rotate(0 217.48462944495986 0)"><path d="M406.62 11.2 C414.72 9.18, 423.67 6.29, 434.87 1.11 M406.62 11.2 C412.79 9.73, 418.99 5.67, 434.87 1.11" stroke="#e03131" stroke-width="1" fill="none"></path></g><g transform="translate(925.5275675527446 435.29068729675237) rotate(0 217.48462944495986 0)"><path d="M406.74 -9.32 C414.6 -5.01, 423.51 -1.57, 434.87 1.11 M406.74 -9.32 C413.03 -6.07, 419.2 -5.4, 434.87 1.11" stroke="#e03131" stroke-width="1" fill="none"></path></g></g><mask></mask><g stroke-linecap="round" transform="translate(1364.049631012489 53.45241224839447) rotate(0 457.6787491964669 432.45236144548016)"><path d="M32 0 C236.21 -1.12, 440.24 -1, 883.36 0 M32 0 C270.97 -3.08, 510.71 -3.07, 883.36 0 M883.36 0 C902.86 0.56, 915.47 9.55, 915.36 32 M883.36 0 C902.58 0.06, 913.73 11.83, 915.36 32 M915.36 32 C913.82 333.76, 914.92 634.71, 915.36 832.9 M915.36 32 C915.98 258.84, 915.38 484.88, 915.36 832.9 M915.36 832.9 C916.52 855.3, 905.21 866.85, 883.36 864.9 M915.36 832.9 C914.46 856.09, 903.82 865.88, 883.36 864.9 M883.36 864.9 C547.12 861.83, 211.55 861.01, 32 864.9 M883.36 864.9 C643.01 866.34, 403.4 865.74, 32 864.9 M32 864.9 C10.62 862.93, 1.41 855.44, 0 832.9 M32 864.9 C9.83 866.23, 1.2 856.15, 0 832.9 M0 832.9 C-0.02 554.44, -1.25 275.21, 0 32 M0 832.9 C-1.13 655.23, -0.97 477.54, 0 32 M0 32 C1.2 8.73, 9.8 -1.11, 32 0 M0 32 C-1.97 12.44, 10.1 -2.26, 32 0" stroke="#e03131" stroke-width="1" fill="none"></path></g><g transform="translate(2005.8449060858857 14.597189785532464) rotate(0 26.066667556762695 17.5)"><text x="0" y="0" font-family="Virgil, Segoe UI Emoji" font-size="28px" fill="#e03131" text-anchor="start" style="white-space: pre;" direction="ltr" dominant-baseline="text-before-edge">API</text></g><g stroke-linecap="round"><g transform="translate(2285.98128039507 461.55298217313066) rotate(0 217.48462944495986 0)"><path d="M0.87 -0.23 C73.2 0.07, 362.42 1.1, 434.65 0.95 M-0.14 -1.39 C71.95 -1.34, 361.32 -0.84, 433.54 -0.67" stroke="#e03131" stroke-width="1" fill="none"></path></g><g transform="translate(2285.98128039507 461.55298217313066) rotate(0 217.48462944495986 0)"><path d="M405.33 9.53 C415.1 5.15, 427.15 0.9, 433.54 -0.67 M405.33 9.53 C410.15 7.97, 416.95 5.02, 433.54 -0.67" stroke="#e03131" stroke-width="1" fill="none"></path></g><g transform="translate(2285.98128039507 461.55298217313066) rotate(0 217.48462944495986 0)"><path d="M405.37 -10.99 C414.98 -8.03, 427.02 -4.95, 433.54 -0.67 M405.37 -10.99 C410.35 -8.32, 417.14 -7.02, 433.54 -0.67" stroke="#e03131" stroke-width="1" fill="none"></path></g></g><mask></mask><g stroke-linecap="round" transform="translate(2724.5033438548126 79.71470712477276) rotate(0 457.6787491964669 432.45236144548016)"><path d="M32 0 C349.64 0.45, 665.26 1.53, 883.36 0 M32 0 C208.92 -1.17, 385.42 -0.94, 883.36 0 M883.36 0 C903.28 1.01, 916.89 10.1, 915.36 32 M883.36 0 C906.21 -1.82, 916.24 12, 915.36 32 M915.36 32 C915.35 252.74, 915.57 471.82, 915.36 832.9 M915.36 32 C917.32 265.04, 917.06 497.62, 915.36 832.9 M915.36 832.9 C914.6 855.09, 906.58 863.63, 883.36 864.9 M915.36 832.9 C913.13 853.41, 905.36 865.17, 883.36 864.9 M883.36 864.9 C690.77 866.74, 498.49 867.44, 32 864.9 M883.36 864.9 C670.65 861.79, 457.24 861.78, 32 864.9 M32 864.9 C11.71 866.57, 0.97 854.62, 0 832.9 M32 864.9 C11.07 866.62, 2.13 852.4, 0 832.9 M0 832.9 C3.12 519.8, 2.87 207.54, 0 32 M0 832.9 C-2.1 519.3, -2.26 206.44, 0 32 M0 32 C-0.49 8.7, 10.47 -0.23, 32 0 M0 32 C-1.52 10.95, 8.87 -0.25, 32 0" stroke="#e03131" stroke-width="1" fill="none"></path></g><g stroke-linecap="round" transform="translate(2766.569428275703 314.092720423032) rotate(0 425.5400084589178 215.99423692655728)"><path d="M32 0 C246.6 2.41, 461.96 1.05, 819.08 0 M32 0 C289.65 1.76, 547.75 1.96, 819.08 0 M819.08 0 C841.94 -0.56, 852.4 9.09, 851.08 32 M819.08 0 C841.3 1.34, 850.51 10.27, 851.08 32 M851.08 32 C853.82 145.72, 852.52 262.47, 851.08 399.99 M851.08 32 C851.43 162.5, 851.44 292.26, 851.08 399.99 M851.08 399.99 C852.97 420.05, 838.47 431.27, 819.08 431.99 M851.08 399.99 C851.75 421.59, 838.72 431.57, 819.08 431.99 M819.08 431.99 C523.51 428.89, 225.95 428.94, 32 431.99 M819.08 431.99 C660.36 434.12, 502.14 434.22, 32 431.99 M32 431.99 C11.64 432.37, 0.35 422.81, 0 399.99 M32 431.99 C12.8 430.15, 2.08 419.53, 0 399.99 M0 399.99 C-1.18 279.27, -0.63 159.87, 0 32 M0 399.99 C0.46 325.65, 0.84 249.74, 0 32 M0 32 C-0.19 10.44, 9.35 0.25, 32 0 M0 32 C-1.8 10.41, 8.94 0.16, 32 0" stroke="#e03131" stroke-width="1" fill="none"></path></g><g transform="translate(3323.622389754106 37.576697802363924) rotate(0 151.02499389648438 17.5)"><text x="0" y="0" font-family="Virgil, Segoe UI Emoji" font-size="28px" fill="#e03131" text-anchor="start" style="white-space: pre;" direction="ltr" dominant-baseline="text-before-edge">Database / Postgres</text></g><g transform="translate(3253.0234509712554 269.509950889651) rotate(0 120.85832977294922 17.5)"><text x="0" y="0" font-family="Virgil, Segoe UI Emoji" font-size="28px" fill="#e03131" text-anchor="start" style="white-space: pre;" direction="ltr" dominant-baseline="text-before-edge">Table contact-us</text></g><g transform="translate(2799.998864353831 348.2968355187677) rotate(0 324.4666748046875 87.5)"><text x="0" y="0" font-family="Virgil, Segoe UI Emoji" font-size="28px" fill="#e03131" text-anchor="start" style="white-space: pre;" direction="ltr" dominant-baseline="text-before-edge">id: SERIAL,</text><text x="0" y="35" font-family="Virgil, Segoe UI Emoji" font-size="28px" fill="#e03131" text-anchor="start" style="white-space: pre;" direction="ltr" dominant-baseline="text-before-edge">date_created: DATETIME DEFAULT(NOW()),</text><text x="0" y="70" font-family="Virgil, Segoe UI Emoji" font-size="28px" fill="#e03131" text-anchor="start" style="white-space: pre;" direction="ltr" dominant-baseline="text-before-edge">date_modified: TIMESTAMP DEFAULT(NOW()),</text><text x="0" y="105" font-family="Virgil, Segoe UI Emoji" font-size="28px" fill="#e03131" text-anchor="start" style="white-space: pre;" direction="ltr" dominant-baseline="text-before-edge">email: VARCHAR(50),</text><text x="0" y="140" font-family="Virgil, Segoe UI Emoji" font-size="28px" fill="#e03131" text-anchor="start" style="white-space: pre;" direction="ltr" dominant-baseline="text-before-edge">is_active: BOOLEAN DEFAULT(TRUE)</text></g><g stroke-linecap="round" transform="translate(1477.035759956565 279.3583114682933) rotate(0 354.5409808310292 54.98667989740443)"><path d="M27.49 0 C227.57 1.84, 428 3.01, 681.59 0 M27.49 0 C205.41 2.3, 382.92 2, 681.59 0 M681.59 0 C700.16 1.36, 710.24 11.08, 709.08 27.49 M681.59 0 C697.78 -0.22, 710.42 10.39, 709.08 27.49 M709.08 27.49 C711.23 44.66, 710.46 65.23, 709.08 82.48 M709.08 27.49 C708.84 40.59, 707.81 53.28, 709.08 82.48 M709.08 82.48 C710.61 101.42, 697.99 111.96, 681.59 109.97 M709.08 82.48 C708.89 99.66, 699.86 107.71, 681.59 109.97 M681.59 109.97 C439.78 109.44, 197.72 109.41, 27.49 109.97 M681.59 109.97 C473.26 111.6, 264.55 111.61, 27.49 109.97 M27.49 109.97 C9.71 111.52, -1.3 101.75, 0 82.48 M27.49 109.97 C8.62 112.07, 1.38 98.59, 0 82.48 M0 82.48 C1.85 67.89, -1.66 54.08, 0 27.49 M0 82.48 C-0.42 66.51, -0.39 50.83, 0 27.49 M0 27.49 C-0.29 10.44, 7.82 -0.01, 27.49 0 M0 27.49 C-0.02 7.58, 7.67 -0.3, 27.49 0" stroke="#e03131" stroke-width="1" fill="none"></path></g><g transform="translate(1729.810348141651 318.75175378285167) rotate(0 102.67500305175781 17.5)"><text x="0" y="0" font-family="Virgil, Segoe UI Emoji" font-size="28px" fill="#e03131" text-anchor="start" style="white-space: pre;" direction="ltr" dominant-baseline="text-before-edge">POST /submit/</text></g></svg>